<svg width="295" height="440" viewBox="0 0 295 440" fill="none" xmlns="http://www.w3.org/2000/svg">
<path d="M154.384 268.884C228.413 268.884 288.425 208.859 288.425 134.814C288.425 60.7689 228.413 0.743652 154.384 0.743652C80.355 0.743652 20.3428 60.7689 20.3428 134.814C20.3428 208.859 80.355 268.884 154.384 268.884Z" fill="#F2F2F2"/>
<path d="M147.577 408.913C228.892 408.913 294.811 405.014 294.811 400.204C294.811 395.394 228.892 391.495 147.577 391.495C66.2617 391.495 0.342773 395.394 0.342773 400.204C0.342773 405.014 66.2617 408.913 147.577 408.913Z" fill="#3F3D56"/>
<path opacity="0.1" d="M118.025 406.51C178.938 406.51 228.318 403.821 228.318 400.504C228.318 397.187 178.938 394.498 118.025 394.498C57.1111 394.498 7.73096 397.187 7.73096 400.504C7.73096 403.821 57.1111 406.51 118.025 406.51Z" fill="black"/>
<path d="M205.69 439.571C252.287 439.571 290.061 437.661 290.061 435.305C290.061 432.949 252.287 431.039 205.69 431.039C159.093 431.039 121.318 432.949 121.318 435.305C121.318 437.661 159.093 439.571 205.69 439.571Z" fill="#3F3D56"/>
<path d="M196.655 299.123H27.7842V399.412H196.655V299.123Z" fill="#3F3D56"/>
<path opacity="0.2" d="M176.074 314.958H163.408V327.626H176.074V314.958Z" fill="#6C63FF"/>
<path opacity="0.2" d="M176.074 330.793H163.408V343.462H176.074V330.793Z" fill="#2F2E41"/>
<path opacity="0.2" d="M176.074 346.629H163.408V359.297H176.074V346.629Z" fill="#FF6584"/>
<path d="M232.804 306.249C232.804 306.249 254.968 316.278 247.052 327.89C239.136 339.503 215.389 361.672 214.861 366.422C214.333 371.173 211.167 375.396 211.167 375.396C211.167 375.396 200.613 364.311 201.668 363.255C202.724 362.2 213.278 352.171 213.806 349.532C214.333 346.892 230.165 326.307 230.165 326.307L215.917 313.639L232.804 306.249Z" fill="#FFB9B9"/>
<path opacity="0.1" d="M232.804 306.249C232.804 306.249 254.968 316.278 247.052 327.89C239.136 339.503 215.389 361.672 214.861 366.422C214.333 371.173 211.167 375.396 211.167 375.396C211.167 375.396 200.613 364.311 201.668 363.255C202.724 362.2 213.278 352.171 213.806 349.532C214.333 346.892 230.165 326.307 230.165 326.307L215.917 313.639L232.804 306.249Z" fill="black"/>
<path d="M204.834 328.418C204.834 328.418 220.138 334.752 219.083 344.781C218.027 354.81 237.553 383.313 237.553 383.313C237.553 383.313 239.664 390.175 239.136 392.286C238.609 394.398 252.857 393.87 252.857 393.87V389.119C252.857 389.119 241.775 370.117 240.719 364.839C239.664 359.56 233.331 338.975 233.331 338.975C233.331 338.975 231.221 320.501 220.666 320.501C217.594 320.501 214.564 321.216 211.816 322.59C209.068 323.965 206.678 325.96 204.834 328.418V328.418Z" fill="#FFB9B9"/>
<path d="M205.626 280.649C205.626 280.649 237.289 306.513 236.234 308.624C235.178 310.736 219.874 318.653 217.236 319.181C214.597 319.709 195.927 280.649 195.927 280.649H205.626Z" fill="#2F2E41"/>
<path opacity="0.1" d="M205.626 280.649C205.626 280.649 237.289 306.513 236.234 308.624C235.178 310.736 219.874 318.653 217.236 319.181C214.597 319.709 195.927 280.649 195.927 280.649H205.626Z" fill="black"/>
<path d="M171.324 285.927C171.324 285.927 168.158 300.179 176.601 305.985C185.045 311.791 199.293 334.488 200.877 334.488C202.46 334.488 225.152 322.348 224.096 320.237C223.041 318.125 211.431 299.651 211.431 299.651L207.737 280.121C207.737 280.121 175.546 279.066 171.324 285.927Z" fill="#2F2E41"/>
<path d="M205.626 239.478L210.375 270.092L218.819 291.734C218.819 291.734 231.484 304.93 224.096 305.985C216.708 307.041 212.486 291.734 212.486 291.734L205.626 279.066V239.478Z" fill="#FFB9B9"/>
<path opacity="0.1" d="M205.626 239.478L210.375 270.092L218.819 291.734C218.819 291.734 231.484 304.93 224.096 305.985C216.708 307.041 212.486 291.734 212.486 291.734L205.626 279.066V239.478Z" fill="black"/>
<path d="M187.947 205.433C187.947 205.433 187.947 216.517 184.253 217.573C180.559 218.628 199.03 232.88 199.03 232.88C199.03 232.88 196.919 214.406 204.307 209.655L187.947 205.433Z" fill="#FFB9B9"/>
<path opacity="0.1" d="M187.947 205.433C187.947 205.433 187.947 216.517 184.253 217.573C180.559 218.628 199.03 232.88 199.03 232.88C199.03 232.88 196.919 214.406 204.307 209.655L187.947 205.433Z" fill="black"/>
<path d="M196.391 214.406C203.094 214.406 208.529 208.97 208.529 202.266C208.529 195.561 203.094 190.125 196.391 190.125C189.688 190.125 184.253 195.561 184.253 202.266C184.253 208.97 189.688 214.406 196.391 214.406Z" fill="#FFB9B9"/>
<path d="M196.919 227.602C196.919 227.602 185.837 213.878 184.253 214.406C182.67 214.934 171.06 226.546 170.005 230.241C168.95 233.936 166.839 260.327 168.422 265.606C170.005 270.884 170.005 284.608 169.477 285.664C168.95 286.719 165.783 289.358 168.95 289.358C172.116 289.358 183.198 281.441 190.586 283.024C197.974 284.608 208.001 282.497 208.529 281.441C209.056 280.385 208.001 252.938 208.529 250.826C209.056 248.715 207.473 238.158 206.945 236.047C206.418 233.936 206.418 225.49 201.14 223.379L198.89 223.157L198.764 228.378L196.919 227.602Z" fill="#6C63FF"/>
<path d="M173.699 255.049C173.699 255.049 174.754 271.412 182.67 278.274C190.586 285.136 207.473 296.748 208.529 298.859C209.584 300.971 219.611 312.055 221.722 307.305C222.334 305.824 222.482 304.191 222.145 302.625C221.838 301.067 221.217 299.589 220.318 298.281C219.419 296.972 218.262 295.862 216.919 295.017L212.223 291.998L189.003 267.717L187.947 255.049H173.699Z" fill="#FFB9B9"/>
<path d="M204.043 361.408C204.043 361.408 197.974 360.088 195.863 363.783C193.752 367.478 197.974 377.507 197.974 377.507C197.974 377.507 210.112 402.843 212.223 399.676C214.334 396.509 210.639 384.897 210.639 384.897C210.639 384.897 215.917 373.284 213.806 372.756C211.695 372.229 204.043 367.742 204.043 361.408Z" fill="#2F2E41"/>
<path d="M241.247 391.758C241.247 391.758 238.081 390.175 237.553 391.758C237.025 393.342 233.859 401.259 237.553 402.315C241.247 403.371 277.66 404.427 276.604 402.315C275.549 400.204 269.744 397.565 266.05 396.509C262.356 395.453 252.857 387.536 252.857 387.536C252.857 387.536 247.58 394.398 241.247 391.758Z" fill="#2F2E41"/>
<path d="M208.618 192.63C208.39 191.864 207.888 191.209 207.208 190.79C207.243 189.969 207.143 189.149 206.91 188.361C206.135 186.068 204.298 186.199 202.564 185.185C201.812 184.745 201.859 184.357 201.467 183.634C200.954 182.687 200.186 181.903 199.25 181.371C198.137 180.662 196.964 179.932 195.648 179.843C192.883 179.654 190.764 182.255 188.121 183.09C186.956 183.458 185.705 183.473 184.534 183.821C183.363 184.169 182.195 184.999 182.02 186.208C181.94 186.767 182.082 187.339 182 187.897C181.838 189.007 180.865 189.783 180.214 190.696C178.773 192.713 178.938 195.563 180.09 197.758C180.333 198.213 180.61 198.647 180.92 199.058C181.016 200.096 181.314 201.105 181.797 202.028C182.949 204.223 184.931 205.863 187.001 207.226C186.832 206.498 186.729 205.756 186.694 205.009C186.665 204.761 186.697 204.508 186.789 204.275C187.019 203.793 187.628 203.665 188.093 203.401C189.055 202.854 189.432 201.644 189.46 200.537C189.488 199.43 189.254 198.322 189.369 197.221C189.374 196.968 189.431 196.719 189.538 196.489C189.645 196.26 189.799 196.055 189.99 195.889C190.345 195.686 190.75 195.589 191.159 195.61C193.13 195.529 195.19 195.493 196.928 194.561C197.489 194.188 198.092 193.883 198.724 193.652C200.202 193.267 201.712 194.303 202.564 195.571C203.416 196.838 203.84 198.347 204.626 199.657C205.412 200.967 206.769 202.135 208.289 201.98C208.374 201.98 208.459 201.962 208.537 201.927C208.615 201.892 208.685 201.842 208.742 201.778C208.808 201.66 208.837 201.526 208.826 201.391L208.911 195.583C208.981 194.589 208.882 193.591 208.618 192.63Z" fill="#2F2E41"/>
<path d="M178.448 228.13C178.448 228.13 190.058 233.408 189.53 244.492C189.003 255.577 192.697 256.633 183.726 257.688C174.754 258.744 172.643 257.688 172.116 258.744C171.588 259.8 168.422 234.464 170.533 231.824C172.643 229.185 178.448 228.13 178.448 228.13Z" fill="#6C63FF"/>
<path d="M225.152 423.657C225.152 434.402 218.766 438.153 210.888 438.153C210.706 438.153 210.523 438.15 210.342 438.147C209.977 438.139 209.615 438.122 209.258 438.097C202.148 437.594 196.625 433.649 196.625 423.657C196.625 413.318 209.834 400.27 210.829 399.302L210.831 399.301C210.869 399.263 210.888 399.244 210.888 399.244C210.888 399.244 225.152 412.913 225.152 423.657Z" fill="#6C63FF"/>
<path d="M210.368 436.509L215.585 429.219L210.355 437.31L210.342 438.146C209.977 438.139 209.615 438.122 209.258 438.097L209.82 427.348L209.816 427.264L209.825 427.249L209.879 426.233L204.635 418.122L209.894 425.471L209.908 425.687L210.332 417.566L205.843 409.184L210.387 416.141L210.829 399.302L210.83 399.244V399.301L210.757 412.579L215.226 407.314L210.739 413.722L210.62 420.994L214.794 414.015L210.603 422.064L210.538 426.107L216.594 416.393L210.514 427.517L210.368 436.509Z" fill="#3F3D56"/>
</svg>
