<svg width="84" height="47" viewBox="0 0 84 77" fill="none" xmlns="http://www.w3.org/2000/svg">
<path fill-rule="evenodd" clip-rule="evenodd" d="M78.75 0H5.25C2.34806 0 0 2.15239 0 4.8125V72.1875C0 74.8476 2.34806 77 5.25 77H78.75C81.6519 77 84 74.8476 84 72.1875V4.8125C84 2.15239 81.6519 0 78.75 0ZM5.25 7.21875C5.25 5.8893 6.42469 4.8125 7.875 4.8125H76.125C77.5753 4.8125 78.75 5.8893 78.75 7.21875V43.3125H57.75C56.2997 43.3125 55.125 44.3893 55.125 45.7188V52.9375H28.875V45.7188C28.875 44.3893 27.7003 43.3125 26.25 43.3125H5.25V7.21875ZM76.125 72.1875C77.5753 72.1875 78.75 71.1107 78.75 69.7812V48.125H60.375V55.3438C60.375 56.6732 59.2003 57.75 57.75 57.75H26.25C24.7997 57.75 23.625 56.6732 23.625 55.3438V48.125H5.25V69.7812C5.25 71.1107 6.42469 72.1875 7.875 72.1875H76.125Z" fill="#FF9966"/>
<path fill-rule="evenodd" clip-rule="evenodd" d="M18.375 19.25H65.625C67.0753 19.25 68.25 18.1732 68.25 16.8438C68.25 15.5143 67.0753 14.4375 65.625 14.4375H18.375C16.9247 14.4375 15.75 15.5143 15.75 16.8438C15.75 18.1732 16.9247 19.25 18.375 19.25Z" fill="#FF9966"/>
<path fill-rule="evenodd" clip-rule="evenodd" d="M68.25 31.2812C68.25 29.9518 67.0753 28.875 65.625 28.875H18.375C16.9247 28.875 15.75 29.9518 15.75 31.2812C15.75 32.6107 16.9247 33.6875 18.375 33.6875H65.625C67.0753 33.6875 68.25 32.6107 68.25 31.2812Z" fill="#FF9966"/>
</svg>
